# xmcd CD database file
#
# Track frame offsets:
#	150
#	15274
#	29477
#	51931
#	72413
#	87786
#	104029
#	120965
#	133061
#	148181
#	167829
#	188740
#
# Disc length: 2797 seconds
#
# Revision: 0
# Processed by: cddbd v1.5PL3 Copyright (c) Steve Scherf et al.
# Submitted via: CDex 1.51
#
DISCID=a60aeb0c
DTITLE=Tim Malchak - The Coast Is Clear
DYEAR=1995
DGENRE=Country
TTITLE0=The Coast Is Clear
TTITLE1=Harbour Town
TTITLE2=Morgan
TTITLE3=Starting Over
TTITLE4=The One That Got Away
TTITLE5=Forever
TTITLE6=Dancing With You And The Moon
TTITLE7=Lesson Of Love
TTITLE8=Prisoners Of Time
TTITLE9=Dreamin' Again
TTITLE10=It's Just The Night
TTITLE11=Some Bridges Just Won't Burn
EXTD=YEAR: 1995
EXTT0=
EXTT1=
EXTT2=
EXTT3=
EXTT4=
EXTT5=
EXTT6=
EXTT7=
EXTT8=
EXTT9=
EXTT10=
EXTT11=
PLAYORDER=
